<svg width="32" height="32" viewBox="0 0 32 32" fill="none" xmlns="http://www.w3.org/2000/svg">
<g id="BloxGame">
<path id="Vector" d="M30.0764 20.5828C30.0748 20.5845 30.0748 20.5861 30.0748 20.5861L20.5832 30.076C19.3149 31.3443 17.6529 31.9792 15.9876 31.9792C14.3255 31.9792 12.6618 31.3443 11.3919 30.076L7.15394 25.8348C6.36968 27.7478 6.29913 29.2573 7.13589 30.0941C7.58709 30.5453 8.25486 30.7405 9.08835 30.7093C9.31313 30.6995 9.38204 31.0145 9.17367 31.1015C9.17367 31.1015 9.17039 31.1031 9.16054 31.1064C6.60266 32.181 4.5895 32.3287 3.57718 31.318C3.08004 30.8209 2.86182 30.0793 2.89956 29.1523C2.9012 29.1047 2.90284 29.0538 2.90776 29.0046C2.91104 28.962 2.91433 28.916 2.91761 28.8717C2.91925 28.852 2.92089 28.834 2.92253 28.8159C2.92581 28.7749 2.93073 28.7323 2.93566 28.6912C2.93894 28.6584 2.94386 28.6256 2.94878 28.5928C2.9537 28.5501 2.96027 28.5058 2.96683 28.4632C2.97667 28.4008 2.98652 28.3368 2.998 28.2745C3.00785 28.2171 3.01933 28.158 3.03082 28.1006C3.06527 27.9217 3.10957 27.738 3.16043 27.5493C3.17192 27.5034 3.18504 27.4574 3.19653 27.4098C3.19817 27.4066 3.19981 27.4049 3.19981 27.4016C3.21294 27.3557 3.22606 27.3098 3.24083 27.2622C3.2556 27.2146 3.26872 27.1654 3.28349 27.1178C3.29825 27.0686 3.31466 27.0194 3.33107 26.9701C3.34748 26.9193 3.36224 26.87 3.37865 26.8208C3.4131 26.7224 3.44756 26.6207 3.48366 26.5189C3.5017 26.4681 3.51975 26.4172 3.53944 26.3647C3.69367 25.9529 3.87087 25.5247 4.0776 25.0833C4.10221 25.0292 4.12846 24.9734 4.15635 24.9176C4.49926 24.194 4.9078 23.4327 5.37868 22.6452C5.41478 22.5845 5.45088 22.5238 5.48861 22.4631C5.56245 22.34 5.63792 22.2186 5.71503 22.0956C5.75277 22.0348 5.79215 21.9725 5.83152 21.9102C5.8791 21.8347 5.92668 21.7592 5.97591 21.6837C6.08091 21.518 6.1892 21.3523 6.30077 21.185C6.31718 21.1587 6.33522 21.1325 6.35327 21.1062C6.46648 20.9356 6.58297 20.7633 6.70274 20.591C7.09816 20.0184 7.51982 19.436 7.97102 18.8469V18.8453C9.02108 17.4704 10.2106 16.0626 11.5232 14.6565C12.0728 14.8157 12.6815 14.5597 12.9309 14.0101L13.6036 12.5334L13.6052 12.5318C14.7324 11.4342 15.8678 10.412 16.9917 9.47679C18.3797 8.32008 19.7481 7.29792 21.0607 6.42505L18.5635 3.92788C17.8777 3.24042 16.9638 2.86305 15.9925 2.86305C15.0228 2.86305 14.1089 3.24042 13.4231 3.92788L3.92829 13.4194C3.92829 13.4194 3.9004 13.449 3.8479 13.5048C3.83969 13.513 3.83149 13.5212 3.82492 13.531C3.8036 13.5507 3.78555 13.572 3.76914 13.5917C3.7593 13.6032 3.74945 13.6147 3.73797 13.6262C3.71336 13.6524 3.69039 13.6803 3.66906 13.7066C3.66906 13.7066 3.66906 13.7082 3.66742 13.7082C3.14731 14.353 2.8651 15.1488 2.8651 15.9872C2.8651 16.9585 3.24247 17.8707 3.92829 18.5582L4.57145 19.2013C3.99392 20.0397 3.46725 20.8683 2.99636 21.6772L1.90364 20.5845C-0.634548 18.0463 -0.634548 13.9313 1.90364 11.3931L11.3936 1.90323C12.6635 0.633317 14.3255 0 15.9892 0C17.6529 0 19.3166 0.633317 20.5849 1.90323L23.5792 4.89754C27.0854 2.98939 29.9206 2.43811 31.1872 3.70474C32.1995 4.71707 32.0486 6.73187 30.9739 9.29303V9.29467L30.9723 9.29795C30.8853 9.50632 30.5719 9.43905 30.5801 9.21263C30.6113 8.38079 30.4144 7.71466 29.9649 7.26346C28.2339 5.5325 23.4315 7.86232 18.2616 12.2726C17.1656 13.2061 16.0532 14.2349 14.9506 15.3374C14.611 15.6771 14.2796 16.0167 13.9564 16.3563C13.9564 16.3563 13.9564 16.3563 13.9564 16.358C12.3009 18.0922 10.8652 19.8117 9.70854 21.4294C9.28031 22.025 8.89146 22.6075 8.54527 23.1719L13.4215 28.0481C14.1073 28.7339 15.0212 29.1129 15.9909 29.1129C16.9622 29.1129 17.8744 28.7339 18.5619 28.0481L28.0518 18.5582C28.7376 17.8723 29.1166 16.9585 29.1166 15.9872C29.1166 15.0864 28.7901 14.2365 28.1962 13.572C28.1683 13.5441 28.1437 13.513 28.1158 13.4851C28.0961 13.4637 28.0747 13.4408 28.0518 13.4194L25.0985 10.4661C26.4767 9.68844 27.4152 9.37506 27.955 9.27006L30.0781 11.3931C32.6113 13.9297 32.613 18.0446 30.0764 20.5828Z" fill="#fbca39"/>
<path id="Vector_2" d="M25.069 13.6622L23.8483 19.6345C23.6301 20.7108 22.8392 21.4655 21.9319 21.4655H10.0449C9.98419 21.4655 9.92349 21.4622 9.86442 21.4557C9.84801 21.454 9.82997 21.4524 9.81356 21.4491C9.79387 21.4458 9.77582 21.4442 9.75613 21.4393C9.73973 21.436 9.72168 21.4327 9.70527 21.4294C9.61339 21.4114 9.52479 21.3835 9.44112 21.3507C9.4083 21.3392 9.37713 21.3244 9.34595 21.3096C9.31314 21.2949 9.28033 21.2768 9.24751 21.2604C9.22454 21.2473 9.19993 21.2342 9.17696 21.2194C9.15563 21.2079 9.1343 21.1948 9.11297 21.18C9.10313 21.1751 9.09328 21.1669 9.08344 21.1603C9.06867 21.1505 9.05391 21.139 9.03914 21.1292C8.96695 21.075 8.8964 21.0176 8.82913 20.9536C8.77663 20.906 8.72576 20.8519 8.67982 20.7944C8.65521 20.7666 8.63224 20.737 8.60927 20.7091C8.37957 20.4154 8.21222 20.0496 8.1269 19.6345L7.96611 18.8469V18.8453L6.90785 13.6622C6.72901 12.7828 7.4903 12.0625 8.14167 12.4924L11.1983 14.5089C11.2246 14.5253 11.2508 14.5417 11.2771 14.5564C11.3558 14.6007 11.4362 14.6336 11.5183 14.6582C12.0679 14.8173 12.6766 14.5614 12.926 14.0117L13.5987 12.5351L13.6003 12.5334L15.2443 8.92221C15.2443 8.92221 15.246 8.91893 15.2476 8.91237C15.5758 8.20686 16.4125 8.2085 16.7341 8.92221L16.9868 9.47841L17.6168 10.8615L18.26 12.2726L19.0524 14.0101C19.3527 14.6696 20.1698 14.9059 20.7785 14.5072L23.8351 12.4908C24.4865 12.0642 25.2478 12.7828 25.069 13.6622Z" fill="#fbca39"/>
<path id="Vector_3" d="M30.0764 20.5827C30.1027 20.4826 31.1298 16.5728 28.1125 13.4866C28.0928 13.4653 28.0715 13.4423 28.0485 13.421L25.0952 10.4677C26.4734 9.68999 27.4119 9.37661 27.9517 9.27161L30.0748 11.3947C32.6113 13.9296 32.613 18.0445 30.0764 20.5827Z" fill="#fbca39"/>
<path id="Vector_4" d="M30.9723 9.29467C31.0198 9.10927 32.5244 2.79742 25.6645 5.73923C22.8491 6.9468 20.0894 8.80902 17.6168 10.8616C16.762 11.572 15.94 12.3054 15.1623 13.0421C14.2665 13.892 13.7972 15.111 13.9514 16.335C13.9531 16.3432 13.9531 16.3498 13.9547 16.3563C13.9547 16.3563 13.9547 16.3563 13.9547 16.358C14.0286 16.9339 14.1729 17.4753 14.4076 17.9511C15.9055 20.9831 18.0368 21.4672 18.0368 21.4672H10.0465C9.98582 21.4672 9.92512 21.4639 9.86605 21.4573C9.84964 21.4557 9.83159 21.454 9.81519 21.4508C9.7955 21.4475 9.77745 21.4458 9.75776 21.4409C9.74136 21.4376 9.72331 21.4343 9.7069 21.4311C9.61502 21.413 9.52642 21.3851 9.44274 21.3523C9.40993 21.3408 9.37876 21.3261 9.34758 21.3113C9.31477 21.2965 9.28195 21.2785 9.24914 21.2621C9.22617 21.2489 9.20156 21.2358 9.17859 21.2211C9.15726 21.2096 9.13593 21.1964 9.1146 21.1817C9.10476 21.1768 9.09491 21.1685 9.08507 21.162C9.0703 21.1521 9.05553 21.1407 9.04077 21.1308C8.96858 21.0767 8.89803 21.0192 8.83076 20.9553C8.77825 20.9044 8.72903 20.8519 8.68145 20.7961C8.65684 20.7682 8.63387 20.7387 8.6109 20.7108C5.65104 25.0423 0.956949 32.688 9.17203 31.1015C9.17203 31.1015 9.16874 31.1031 9.1589 31.1064C6.60102 32.181 4.58786 32.3287 3.57554 31.318C3.0784 30.8209 2.86018 30.0793 2.89792 29.1523C2.89956 29.1047 2.9012 29.0538 2.90612 29.0046C2.9094 28.962 2.91269 28.916 2.91597 28.8717C2.91761 28.852 2.91925 28.834 2.92089 28.8159C2.92417 28.7749 2.92909 28.7323 2.93401 28.6912C2.9373 28.6584 2.94222 28.6256 2.94714 28.5928C2.95206 28.5501 2.95863 28.5058 2.96519 28.4632C2.97503 28.4008 2.98488 28.3368 2.99636 28.2745C3.00621 28.2171 3.01769 28.158 3.02918 28.1006C3.06363 27.9217 3.10793 27.738 3.15879 27.5493C3.17028 27.5034 3.1834 27.4574 3.19489 27.4098C3.19653 27.4066 3.19817 27.4049 3.19817 27.4016C3.2113 27.3557 3.22442 27.3098 3.23919 27.2622C3.25395 27.2146 3.26708 27.1654 3.28185 27.1178C3.29661 27.0686 3.31302 27.0194 3.32943 26.9701C3.34584 26.9193 3.3606 26.87 3.37701 26.8208C3.41146 26.7224 3.44592 26.6207 3.48201 26.5189C3.50006 26.4681 3.51811 26.4172 3.5378 26.3647C3.69203 25.9529 3.86922 25.5247 4.07595 25.0833C4.10057 25.0292 4.12682 24.9734 4.15471 24.9176C4.49762 24.194 4.90616 23.4327 5.37704 22.6452C5.41314 22.5845 5.44924 22.5238 5.48697 22.4631C5.5608 22.34 5.63628 22.2186 5.71339 22.0956C5.75113 22.0348 5.7905 21.9725 5.82988 21.9102C5.87746 21.8347 5.92504 21.7592 5.97427 21.6837C6.07927 21.518 6.18756 21.3523 6.29913 21.185C6.31554 21.1587 6.33358 21.1325 6.35163 21.1062C6.46484 20.9356 6.58133 20.7633 6.7011 20.591C7.09652 20.0184 7.51818 19.436 7.96938 18.8469V18.8453L6.91112 13.6623C6.73228 12.7828 7.49357 12.0626 8.14494 12.4924L11.2016 14.5089C11.2278 14.5253 11.2541 14.5417 11.2803 14.5565C11.3591 14.6008 11.4395 14.6336 11.5215 14.6582C12.0712 14.8173 12.6799 14.5614 12.9293 14.0117L13.602 12.5351L13.6036 12.5334L15.2476 8.92223C15.2476 8.92223 15.2492 8.91895 15.2509 8.91238C15.579 8.20687 16.4158 8.20851 16.7374 8.92223L16.9901 9.47843C18.3781 8.32172 19.7465 7.29956 21.059 6.42669L18.5619 3.92952C17.876 3.24206 16.9622 2.86469 15.9909 2.86469C15.0212 2.86469 14.1073 3.24206 13.4215 3.92952L3.92829 13.4194C3.92829 13.4194 3.9004 13.449 3.8479 13.5048C3.83969 13.513 3.83149 13.5212 3.82492 13.531C3.80852 13.5491 3.79047 13.5704 3.76914 13.5917C3.7593 13.6032 3.74945 13.6147 3.73797 13.6262C3.71664 13.6508 3.69367 13.6787 3.66906 13.7066C3.66906 13.7066 3.66906 13.7082 3.66742 13.7082C2.86675 14.6451 0.574662 17.6919 1.90364 20.5828C-0.634548 18.0446 -0.634548 13.9297 1.90364 11.3915L11.3936 1.90323C12.6635 0.633317 14.3255 0 15.9892 0C17.6529 0 19.3166 0.633317 20.5849 1.90323L23.5792 4.89754C27.0854 2.98939 29.9206 2.43811 31.1872 3.70474C32.1995 4.71871 32.0486 6.73351 30.9723 9.29467Z" fill="#fbca39"/>
</g>
</svg>
